<svg version="1.1" id="Layer_1" xmlns="http://www.w3.org/2000/svg" xmlns:xlink="http://www.w3.org/1999/xlink" x="0px" y="0px"
	 width="100%" viewBox="0 0 1024 816" enable-background="new 0 0 1024 816" xml:space="preserve">
<path fill="#000000" opacity="1.000000" stroke="none" 
	d="
M726.014160,732.980835 
	C721.622986,737.771606 717.378723,742.228088 713.228394,746.770386 
	C711.690063,748.453979 710.318237,750.130249 710.042847,752.731018 
	C709.620544,756.719299 705.605835,755.917847 703.102600,756.884033 
	C702.289917,765.195251 701.803711,765.650635 695.345154,764.340881 
	C691.622681,774.120605 692.357117,771.933411 686.818604,771.989624 
	C686.314148,773.988464 686.082458,776.169495 685.209167,778.053223 
	C684.065186,780.520813 682.713989,782.470947 679.036316,780.967773 
	C675.502502,779.523438 674.502075,781.613586 675.045898,785.225098 
	C676.403809,794.243042 672.414673,798.512146 664.267639,797.167969 
	C663.461243,797.034973 662.499146,796.945190 661.920593,796.462402 
	C645.227600,782.530945 624.851929,775.068787 605.894897,765.286438 
	C581.940186,752.925049 559.302917,738.495178 536.225464,724.730652 
	C528.256592,719.977600 520.026367,715.656677 511.848297,711.263489 
	C508.169434,709.287292 504.559448,707.268677 501.301025,704.620789 
	C493.646210,698.400330 484.748779,694.148499 476.448822,688.954529 
	C457.906860,677.351196 439.460266,665.567200 421.588348,652.927063 
	C421.045319,652.542969 420.525208,652.034302 419.914307,651.851624 
	C403.796722,647.032471 392.532745,634.631165 379.079376,625.663513 
	C374.621246,622.691895 369.351593,621.651001 364.880432,618.577942 
	C356.706879,612.960327 347.628723,608.612122 339.697174,602.702026 
	C331.017792,596.234802 321.700897,590.704407 312.471619,585.369873 
	C296.771545,576.295227 281.774811,566.118164 266.041626,557.105408 
	C247.697388,546.596924 229.468567,535.891602 210.584686,526.389282 
	C185.281738,513.656921 160.629211,499.767761 136.360184,485.199493 
	C112.678749,470.983917 89.301605,456.259979 65.571030,442.128387 
	C54.590309,435.589294 43.037640,430.016815 31.851383,423.813019 
	C28.586580,422.002380 23.500563,421.133331 27.892223,414.838074 
	C29.565203,412.439972 26.599970,407.264069 24.949648,404.361847 
	C22.099031,399.348816 22.977463,394.066772 23.840555,389.890991 
	C24.637312,386.036163 23.771990,382.516144 23.201258,379.605835 
	C21.718828,372.046539 24.295366,364.812500 23.417238,357.329498 
	C22.857439,352.559174 22.331892,347.566895 22.486395,342.591522 
	C22.597708,339.007019 22.934254,335.075623 22.305462,331.820007 
	C21.208416,326.139954 22.570847,320.565216 21.855045,314.865112 
	C21.148468,309.238434 21.962629,302.983490 21.204165,296.964813 
	C20.951458,294.959564 23.347620,294.651855 24.826141,294.099091 
	C27.041723,293.270721 29.240400,292.594543 30.226288,290.106812 
	C32.119526,285.329620 36.151672,282.894257 40.262203,280.170227 
	C49.552822,274.013367 59.191704,268.400757 68.660927,262.572998 
	C76.215179,257.923828 84.179176,253.601761 92.659752,250.457672 
	C98.076912,248.449326 103.180557,245.574173 107.973167,242.291260 
	C114.574997,237.768951 121.476265,234.028290 129.020187,231.132706 
	C134.500244,229.029282 139.321686,225.145889 144.330734,221.892822 
	C155.050522,214.930939 165.761414,207.952057 176.363708,200.813461 
	C186.662262,193.879410 197.675949,188.188553 208.424973,182.040604 
	C213.174500,179.324081 218.185501,177.066818 223.058365,174.563217 
	C227.099854,172.486740 229.425491,169.603622 230.368713,164.714203 
	C234.272598,144.477097 239.503784,124.602631 245.967499,104.958954 
	C250.469437,91.277214 253.971909,77.185043 258.373260,63.428837 
	C260.226593,57.636391 264.667084,52.983841 269.123047,48.752121 
	C270.752625,47.204582 272.750793,47.708595 273.593719,49.832264 
	C274.868408,53.043812 276.316833,56.341839 275.544342,59.926716 
	C274.788727,63.433128 276.079559,66.079788 278.459351,68.463593 
	C279.389343,69.395164 280.865417,70.440308 280.915222,71.489639 
	C281.400055,81.701355 288.567322,91.100235 284.430115,101.901917 
	C282.798737,106.161163 282.855896,110.756561 283.783386,115.230515 
	C284.880920,120.524803 286.817841,121.951492 291.893036,120.051743 
	C297.122650,118.094200 302.339050,116.058594 307.027863,112.658348 
	C312.640839,108.587868 318.677368,105.163895 325.273041,102.552170 
	C332.934296,99.518494 340.060822,95.169891 347.524261,91.576775 
	C363.867432,83.708740 380.288452,76.005562 397.101898,69.237427 
	C413.489838,62.640572 429.919464,55.873058 446.865326,51.064041 
	C454.198944,48.982857 461.790924,47.419308 468.837708,44.482033 
	C479.710968,39.949791 491.477478,38.968273 502.476471,35.378368 
	C514.599976,31.421452 527.073425,28.993536 539.209778,25.254873 
	C541.411804,24.576521 543.614685,23.533609 545.463501,22.177031 
	C547.382874,20.768719 548.943115,19.701773 551.147766,21.511101 
	C551.565186,21.853662 552.601624,21.932503 553.065002,21.654322 
	C559.200073,17.971806 566.511963,18.726004 572.961243,16.306496 
	C578.631531,14.179248 584.605591,13.284357 590.524414,13.084729 
	C595.953552,12.901617 598.669739,17.529131 600.318665,21.866003 
	C602.711060,28.157890 605.611816,34.445187 605.593445,41.392738 
	C605.561829,53.342384 606.570435,65.259933 605.827209,77.245110 
	C604.438110,99.646294 604.082092,122.026833 605.620361,144.513794 
	C606.511475,157.540070 606.937805,170.673294 607.432068,183.762573 
	C608.007751,199.007797 609.008911,214.263138 609.083130,229.488541 
	C609.133606,239.839859 612.761169,245.211655 621.612183,251.015671 
	C649.434204,269.259949 677.134460,287.643219 706.097229,304.047516 
	C719.100708,311.412567 731.754822,319.679871 745.443604,325.464691 
	C757.711670,330.649139 767.634338,339.427551 779.638916,344.697449 
	C782.187622,345.816315 785.188110,347.476135 787.607544,346.998322 
	C792.911438,345.950836 796.369751,348.351593 798.458435,352.180878 
	C802.637695,359.842865 810.025879,362.163513 817.262329,365.000427 
	C826.330994,368.555634 835.381470,372.131897 844.324524,376.022705 
	C849.401428,378.231476 855.104553,379.250793 860.275085,381.520020 
	C867.992981,384.907257 874.957825,389.968689 883.344299,391.880554 
	C884.145386,392.063171 884.885376,392.519409 885.687439,392.691467 
	C896.004822,394.904236 895.875977,394.879578 897.256897,384.566681 
	C898.118958,378.127960 900.102661,371.557800 898.522522,365.248688 
	C896.328247,356.487732 899.206238,348.248932 899.370300,339.800323 
	C899.688293,323.422363 900.227356,307.066254 901.130615,290.716125 
	C901.188599,289.665161 901.398010,288.654968 900.245422,288.162170 
	C895.828674,286.273834 894.932251,282.058380 893.528809,278.160675 
	C888.247864,263.493927 884.086426,248.278275 877.277039,234.358398 
	C872.654358,224.908524 872.335388,216.156296 873.821106,206.575684 
	C875.135132,198.101929 879.892822,192.729156 887.206177,187.983902 
	C898.095886,180.918228 910.131348,180.258408 922.087646,179.402405 
	C929.027405,178.905533 936.265808,180.544418 943.156738,182.141586 
	C947.509460,183.150436 950.618958,187.087036 953.664062,190.263748 
	C963.167847,200.178406 965.277405,211.812210 961.768738,225.110855 
	C959.675659,233.043869 956.988586,241.600235 951.869568,246.724335 
	C946.376038,252.223312 947.399963,259.346130 942.987244,264.677704 
	C938.599426,269.979156 935.956726,276.701813 932.364380,282.690735 
	C927.970215,290.016479 927.615540,298.238037 927.269958,306.323334 
	C926.638245,321.101868 926.043335,335.804199 924.213928,350.559845 
	C922.843445,361.614197 922.416016,373.037659 922.623840,384.350403 
	C922.699524,388.470947 922.116516,392.602448 922.515442,396.768890 
	C922.679260,398.479553 922.850647,399.543091 924.783325,399.932312 
	C938.916077,402.778656 953.091248,405.450226 967.136169,408.684570 
	C978.612366,411.327332 990.005066,414.413391 1001.276733,417.825165 
	C1006.162292,419.303894 1008.961182,424.232971 1013.138245,427.089996 
	C1014.745728,428.189484 1013.549744,430.144165 1012.888489,431.679657 
	C1009.052429,440.586761 1007.400024,449.778992 1009.847717,459.334686 
	C1010.499756,461.880249 1008.586914,463.329559 1008.130127,465.379456 
	C1006.477173,472.796661 1005.895203,480.643982 1000.240906,486.601532 
	C999.273682,487.620544 999.665283,488.715393 1000.542664,489.715698 
	C1003.389404,492.961365 1001.441284,495.391907 998.847839,497.207489 
	C987.348328,505.257904 977.839722,515.574829 967.274353,524.684814 
	C939.599792,548.547119 913.782349,574.495483 884.950623,597.084961 
	C868.090881,610.294434 852.720581,625.401733 835.389954,638.027039 
	C823.122314,646.963806 811.402161,656.594543 800.096558,666.579102 
	C786.903381,678.230530 772.653259,688.651123 760.245422,701.243225 
	C753.375671,708.215027 745.390320,714.075134 738.108765,720.658569 
	C733.930786,724.436035 730.155151,728.658447 726.014160,732.980835 
M647.350952,478.922211 
	C649.364563,476.259827 651.680786,473.925629 654.290955,471.813660 
	C661.737915,465.788086 669.396179,460.042694 677.027283,454.290283 
	C683.391846,449.492584 690.048340,444.630249 695.819153,438.820068 
	C702.383850,432.210663 710.449646,427.324005 717.796509,421.607849 
	C727.524963,414.038605 737.207458,406.476501 747.872681,400.217102 
	C752.132629,397.716919 757.151428,396.429535 760.567444,392.531921 
	C767.361328,384.780243 775.319275,378.265656 783.251587,371.787048 
	C792.396301,364.318207 792.413696,363.032532 782.039368,357.571869 
	C767.912964,350.136353 753.476501,343.196716 739.860840,334.913727 
	C729.060181,328.343140 717.030579,324.042725 706.888062,316.377960 
	C705.921631,315.647644 704.835022,315.345917 703.595093,315.614166 
	C700.731873,316.233551 698.939819,314.977692 697.463379,312.526428 
	C696.646362,311.170044 694.759094,309.130432 693.855835,309.361298 
	C685.740723,311.435272 684.038696,303.166107 678.955750,300.521240 
	C667.322693,294.468170 655.603882,288.597565 645.188416,280.475494 
	C641.033386,277.235382 636.558533,274.408875 632.312073,271.281616 
	C626.941345,267.326324 620.915222,264.531281 615.091492,261.383636 
	C611.933472,259.676788 609.601440,260.783569 609.750916,264.386932 
	C610.107178,272.977631 609.633850,281.721649 611.936157,290.077820 
	C614.582703,299.683472 612.287048,308.143646 607.359009,316.278656 
	C606.534668,317.639404 605.238464,318.394165 603.752441,318.786102 
	C588.485229,322.813080 573.425354,327.417114 558.456787,332.524963 
	C542.286499,338.042786 525.857239,342.779327 509.825836,348.811523 
	C493.090729,355.108521 476.906464,362.870392 459.668060,367.821777 
	C456.446503,368.747131 455.364288,370.703918 455.182709,374.033905 
	C454.601990,384.683960 457.884766,394.791016 459.753967,405.005798 
	C461.427368,414.150421 461.386841,422.175110 456.557831,430.319672 
	C452.327728,437.454163 442.178650,443.537689 434.934143,441.281006 
	C420.595520,436.814514 418.279114,435.420715 417.731018,422.569763 
	C417.305511,412.592865 416.773163,402.636017 415.685974,392.707764 
	C415.101990,387.375031 411.189880,383.991333 407.001038,386.008423 
	C401.079712,388.859741 394.572968,389.857574 388.633850,392.431122 
	C365.295380,402.544373 341.659027,412.049438 319.744354,425.165680 
	C318.175659,426.104553 316.323151,426.831268 316.282104,429.046051 
	C316.075409,440.201538 316.162598,451.356873 319.692474,462.099487 
	C321.588470,467.869537 322.267700,473.733612 320.900024,479.548737 
	C320.377167,481.771759 319.374420,483.614471 319.944977,486.123413 
	C320.840973,490.063782 318.679108,493.180206 315.289520,494.588898 
	C309.048889,497.182465 304.522614,495.695160 299.898743,490.465820 
	C298.686310,489.094574 297.505310,487.666656 296.128357,486.474396 
	C285.210022,477.020416 273.917633,468.139587 264.741150,456.647278 
	C255.445908,445.006165 245.652756,433.689941 235.542480,422.671021 
	C221.942474,407.848755 208.848328,392.514282 197.439362,375.919189 
	C192.345673,368.510101 185.634140,362.379974 181.326431,354.392517 
	C179.764267,351.495941 179.283142,349.249268 182.159653,346.993958 
	C183.625427,345.844788 184.838623,344.285492 184.237381,342.239349 
	C182.003052,334.635529 184.760498,327.870361 187.476089,321.012360 
	C189.731079,315.317596 193.063049,309.567902 193.397415,303.698944 
	C194.004944,293.035187 196.924194,282.967377 199.888992,273.044250 
	C207.552277,247.395309 213.981735,221.415848 221.373459,195.699783 
	C222.039093,193.384048 223.752991,190.786636 221.688339,187.728592 
	C216.326111,189.586670 211.940659,193.243851 206.934509,195.651276 
	C201.468872,198.279633 196.879990,202.243378 191.517960,205.072037 
	C186.843567,207.537979 181.862732,209.456848 177.421234,212.288147 
	C169.060867,217.617645 161.173920,223.727921 152.622131,228.710327 
	C138.982254,236.657166 124.916344,243.869080 111.109818,251.534485 
	C93.823143,261.132111 75.958038,269.731415 59.980049,281.592834 
	C54.458546,285.691803 48.457661,289.144958 42.505104,293.003754 
	C44.916355,294.861786 47.058868,296.182617 48.800846,297.907867 
	C61.461239,310.446564 75.621269,321.239777 89.190567,332.716522 
	C100.097565,341.941498 111.702522,350.408264 122.034752,360.225037 
	C130.691315,368.449768 139.392166,376.809113 148.625870,384.140503 
	C167.020096,398.745239 184.002838,414.873566 201.705750,430.207703 
	C220.171585,446.202759 238.828934,461.961670 257.568634,477.631226 
	C267.140167,485.634613 276.614960,493.783478 285.720795,502.307465 
	C301.610016,517.181519 316.343323,533.224915 331.707214,548.628540 
	C342.748505,559.698425 353.932343,570.631531 364.899567,581.780701 
	C372.823486,589.835999 380.296204,598.446167 388.920258,605.675537 
	C401.540619,616.254944 413.500885,627.389954 424.387695,639.733337 
	C430.737579,646.932861 433.342102,647.016846 439.899658,640.157043 
	C445.896301,633.884033 453.419067,629.561890 460.039185,624.093140 
	C468.915344,616.760742 478.493225,610.116028 487.694885,603.136475 
	C506.732727,588.696106 525.892517,574.486511 545.649170,561.032471 
	C564.950439,547.888550 582.993408,533.058472 600.609741,517.730408 
	C609.336853,510.136932 617.805908,502.221588 626.843323,495.018524 
	C633.445618,489.756348 638.935303,483.046295 647.350952,478.922211 
M818.833008,529.940857 
	C819.225464,529.166992 818.834351,528.735413 818.185303,528.375793 
	C808.009521,522.737000 797.828857,517.106873 787.668152,511.440979 
	C784.185608,509.499023 780.944702,506.955597 777.259827,505.581024 
	C770.351624,503.004028 764.427673,498.791412 758.174133,495.122986 
	C756.962097,494.411957 755.332031,493.044434 756.453308,491.473480 
	C760.370728,485.984863 760.918030,479.290405 767.351440,474.250336 
	C786.311096,459.397034 806.460388,445.931641 823.810303,429.080322 
	C827.904236,425.104126 834.218994,424.718140 837.671753,420.506714 
	C843.433289,413.479401 850.613464,408.226196 857.494568,402.547089 
	C860.004822,400.475433 862.614624,398.455841 864.273987,395.274963 
	C861.991699,393.599457 859.725464,392.651947 857.371216,391.828705 
	C850.461792,389.412689 843.636597,386.733704 836.656189,384.547913 
	C825.200317,380.960724 814.750854,374.883209 803.272583,371.350708 
	C800.699585,370.558838 798.887451,370.803223 796.936340,372.559509 
	C787.060974,381.448517 777.129028,390.263153 766.942200,398.810394 
	C758.577026,405.829163 748.683289,410.366455 740.078857,416.904144 
	C723.396606,429.579529 706.790955,442.357727 689.998901,454.886047 
	C674.914795,466.140167 660.567200,478.341278 646.525879,490.774384 
	C632.973694,502.774384 618.713623,513.926819 605.368225,526.187988 
	C595.013489,535.701416 583.669312,544.215210 572.688232,553.077026 
	C557.506042,565.329102 540.537537,574.956909 525.162170,586.898804 
	C512.702576,596.576172 499.635101,605.466980 486.954712,614.865173 
	C476.814606,622.380554 466.786987,630.051941 456.832245,637.811707 
	C450.379364,642.841736 445.153290,649.264038 437.504974,654.307251 
	C460.137482,668.308899 481.967590,681.814148 503.778748,695.307678 
	C507.368469,691.497192 510.248901,687.128723 514.253235,684.424683 
	C528.662598,674.694336 540.986816,662.586853 553.700439,650.926758 
	C564.531738,640.993042 575.419128,631.018433 591.236511,631.099976 
	C603.545288,631.163513 615.778076,629.239563 628.034485,629.861023 
	C637.989502,630.365845 647.897217,629.759277 657.824341,629.794128 
	C669.472107,629.835022 680.973511,627.023560 692.558716,626.908081 
	C699.182373,626.842041 703.946533,624.622803 708.651062,620.682312 
	C723.307800,608.405945 738.011108,596.184204 752.773865,584.035522 
	C774.596313,566.077271 797.799133,549.809875 818.833008,529.940857 
M812.753723,549.283936 
	C804.929871,555.476135 797.360046,562.027649 789.224976,567.779724 
	C775.629028,577.392944 764.053345,589.531616 750.195190,598.731567 
	C743.751587,603.009155 738.882690,608.942566 732.728149,613.507446 
	C723.656860,620.235779 714.675232,627.182129 706.404419,634.844055 
	C703.156677,637.852783 700.411499,638.469849 696.713562,637.696167 
	C694.542358,637.241943 692.448486,637.390503 690.274353,637.638916 
	C677.241882,639.127991 664.197449,640.390320 651.044983,640.215393 
	C641.887817,640.093628 632.726257,640.269714 623.567017,640.346313 
	C610.148987,640.458557 596.714111,642.249756 583.321106,639.912781 
	C582.236572,639.723633 581.393250,640.270264 580.670410,641.018311 
	C572.337219,649.641846 562.661194,656.752014 553.836731,664.824219 
	C546.863770,671.202759 540.374939,678.090881 532.587891,683.608032 
	C526.241821,688.104248 519.983643,692.950195 519.007935,701.704956 
	C518.854248,703.083801 518.128357,704.235962 519.778381,705.045959 
	C521.265198,705.775940 522.028748,704.828674 522.430176,703.672302 
	C523.159851,701.570496 524.696411,700.953186 526.701538,700.978088 
	C543.036438,701.180664 559.045593,696.971436 575.493530,697.786926 
	C584.861511,698.251465 594.316956,698.678650 603.802246,696.931335 
	C611.580444,695.498474 619.785950,694.763489 627.615173,695.558716 
	C645.330933,697.358215 662.286011,691.985413 679.687134,691.241272 
	C680.710327,691.197571 681.722534,690.209839 682.686890,689.580200 
	C696.072998,680.840088 708.659241,671.076660 720.665833,660.510925 
	C726.652100,655.243042 733.445129,650.887146 739.387756,645.575623 
	C748.082336,637.804504 757.085327,630.421509 766.236450,623.225525 
	C780.752625,611.810669 795.870239,601.127869 809.996948,589.258789 
	C827.832153,574.273926 846.451355,560.273193 864.023621,544.937927 
	C876.659424,533.910583 889.921692,523.529358 902.745972,512.675781 
	C913.412231,503.648590 923.457825,493.879059 934.249268,485.011505 
	C943.651672,477.285339 953.268372,469.857819 961.595703,460.924805 
	C967.177979,454.936615 973.511597,449.781525 979.869690,444.655304 
	C986.277710,439.488770 992.641357,434.267120 999.225586,428.905823 
	C996.227051,426.789520 993.218018,427.124176 990.571472,426.191742 
	C969.823914,418.882141 948.317810,414.559326 926.861084,410.022888 
	C923.508545,409.314117 922.266052,410.247986 922.150208,413.598053 
	C921.862549,421.914612 921.478760,430.229858 920.982971,438.536621 
	C920.556274,445.685028 920.227295,452.929779 913.766907,457.860931 
	C909.490173,461.125305 904.558594,461.418213 900.066467,459.340240 
	C896.442627,457.663940 892.284546,454.476776 892.988403,450.098938 
	C894.108398,443.132812 893.643433,436.169464 894.252686,429.227692 
	C894.966309,421.096344 897.105225,412.992950 895.934937,404.579376 
	C890.564819,404.641998 886.410889,401.492615 881.116943,401.027313 
	C876.168884,400.592438 873.429749,401.653839 871.069641,404.954132 
	C868.493103,408.557037 865.300659,411.287720 861.825134,413.932251 
	C852.163940,421.283356 841.608948,427.574524 832.921997,436.069336 
	C815.045349,453.550262 794.976257,468.178986 774.608765,482.479736 
	C773.217712,483.456451 771.626465,484.389160 771.438599,486.738403 
	C777.353088,486.254395 782.860107,487.215485 788.533386,486.983856 
	C811.036743,486.065216 833.558472,485.113403 856.107178,486.542542 
	C860.978455,486.851288 866.006653,487.372223 871.009888,486.191345 
	C874.563416,485.352600 877.476929,487.091400 879.201965,490.480743 
	C880.297852,492.634033 879.726135,494.121338 877.824036,495.605499 
	C865.921814,504.892303 853.937744,514.084900 842.290710,523.684814 
	C832.422363,531.818787 822.972534,540.460571 812.753723,549.283936 
M371.371826,604.213562 
	C375.492798,603.811279 372.550079,602.266663 371.724304,601.421875 
	C359.295013,588.706482 347.383423,575.407532 334.175690,563.554382 
	C323.003723,553.528198 313.074890,542.358032 302.471466,531.840332 
	C289.951324,519.421387 277.370148,507.153687 264.081390,495.544891 
	C254.674850,487.327484 244.511475,480.025513 235.266083,471.719940 
	C213.977997,452.595703 191.522415,434.855713 170.330765,415.598785 
	C151.505707,398.492432 132.031219,382.056885 112.829529,365.340851 
	C98.897530,353.212402 84.470535,341.649139 70.174522,329.943420 
	C60.390602,321.932251 50.361797,314.221222 41.215576,305.450806 
	C39.843910,304.135498 38.153255,302.601318 35.891815,303.841583 
	C33.918495,304.923828 34.155769,306.885437 34.167583,308.712433 
	C34.211544,315.510681 34.457779,322.313751 34.281094,329.106018 
	C33.865997,345.063080 35.501205,360.953766 35.642838,376.904388 
	C35.743118,388.197510 37.329479,399.442749 32.923214,410.289551 
	C31.920826,412.757080 33.536198,413.771729 35.162849,414.536163 
	C42.738525,418.096436 49.207752,423.517975 56.474419,427.456299 
	C75.925049,437.998016 94.543289,449.921417 113.698204,460.919556 
	C137.073502,474.340942 159.364578,489.585632 183.390564,501.896332 
	C197.873993,509.317505 212.246216,516.963440 226.544876,524.735596 
	C241.996445,533.134460 258.619629,539.364807 273.044342,549.643066 
	C278.238281,553.343933 284.467163,555.133423 289.555145,558.887817 
	C296.406158,563.943054 304.000305,567.757996 311.327057,571.950562 
	C322.897980,578.571777 335.006714,584.250244 346.849762,590.401001 
	C350.196289,592.139038 354.343414,593.686707 356.454010,596.158875 
	C360.456421,600.846985 365.774689,601.838562 371.371826,604.213562 
M951.013977,524.492432 
	C954.462830,521.354736 957.846497,518.141663 961.372925,515.093689 
	C971.183533,506.613892 980.210693,497.225708 990.745667,489.593903 
	C992.732300,488.154785 993.459473,486.360687 993.697815,484.126251 
	C994.703125,474.700623 995.861023,465.288361 996.670471,455.846130 
	C997.000549,451.995056 998.977661,448.337006 998.179260,443.468903 
	C992.291382,448.060089 986.695984,451.941040 981.663879,456.450531 
	C972.122803,465.000610 963.533691,474.730621 953.416443,482.494446 
	C934.637085,496.905518 917.644775,513.351562 899.316528,528.256042 
	C883.319580,541.264648 867.939941,555.032593 851.935547,568.031677 
	C839.549500,578.091858 827.000977,587.968018 814.476135,597.861572 
	C793.084778,614.759033 770.968323,630.752014 750.357300,648.627869 
	C743.427185,654.638306 735.339539,659.314026 728.811340,665.592468 
	C714.529541,679.327942 698.759460,690.809998 681.579224,700.496460 
	C679.861267,701.465088 678.958374,702.513367 678.813232,704.725342 
	C677.800964,720.151489 676.521484,735.559814 675.437134,750.981567 
	C675.038391,756.653320 674.640869,762.325867 672.932495,769.193359 
	C675.066589,767.813782 675.810059,767.475891 676.374878,766.947083 
	C687.901306,756.153564 699.538574,745.473450 710.869812,734.478088 
	C718.024780,727.535156 724.303711,719.656433 731.697205,712.998718 
	C750.121887,696.407593 768.872742,680.174194 787.663208,663.995361 
	C798.892151,654.327087 810.104004,644.582581 821.928894,635.676025 
	C839.215210,622.655884 855.871338,608.889709 872.355347,594.906372 
	C880.731812,587.800720 888.502930,579.908447 897.524902,573.651062 
	C906.521851,567.410950 912.512207,557.850403 922.066956,552.352234 
	C922.491699,552.107849 922.838623,551.718201 923.197998,551.371521 
	C932.307129,542.584778 941.413086,533.794739 951.013977,524.492432 
M549.617126,708.303040 
	C543.200684,709.292114 536.728943,709.724304 529.725281,709.802307 
	C540.124390,718.170715 551.386292,723.838989 562.406433,729.874756 
	C572.464539,735.383667 581.500000,742.568787 591.852966,747.579346 
	C613.168884,757.895691 634.482361,768.219788 655.026062,780.038452 
	C660.199585,783.014709 662.795898,781.989563 663.794739,775.857727 
	C667.456909,753.375366 668.126831,730.583008 670.528992,707.966248 
	C670.990906,703.617371 667.906128,701.378845 663.768188,702.788879 
	C660.707825,703.831787 657.589539,703.959045 654.480347,704.452332 
	C646.030273,705.792664 637.543213,705.052979 629.071777,705.182983 
	C611.150024,705.458008 593.338806,707.923767 575.311096,706.966248 
	C567.161804,706.533447 558.670593,706.066162 549.617126,708.303040 
M944.555298,242.107178 
	C949.133301,237.407059 952.628479,232.238144 952.183350,225.088333 
	C929.135315,235.600418 906.735962,230.856628 884.091919,223.331436 
	C884.675049,228.405716 885.873901,232.816711 887.641418,237.125473 
	C891.741211,247.119858 896.082947,257.036438 899.639526,267.224396 
	C901.850769,273.558411 904.371216,279.617432 908.155823,285.116913 
	C910.038147,287.852203 917.529846,289.402313 919.195129,287.161957 
	C922.932251,282.134277 927.440125,277.759796 929.905029,271.641907 
	C933.920044,261.676910 937.956604,251.632248 944.555298,242.107178 
M940.441650,221.224045 
	C949.832642,217.582779 954.548523,208.665573 950.145081,201.170227 
	C946.952148,195.735458 941.784302,191.411423 935.618286,189.599121 
	C919.484680,184.857132 904.385376,188.336746 890.242554,196.763824 
	C886.962158,198.718430 884.662964,208.648453 886.707214,211.184906 
	C889.478638,214.623734 892.939819,217.904053 897.222229,218.397964 
	C911.314331,220.023300 925.179321,225.400558 940.441650,221.224045 
M907.330444,340.735046 
	C907.931580,349.193420 906.262085,357.610596 907.041870,366.103302 
	C907.480225,370.877869 907.216553,375.756561 906.855713,380.557312 
	C905.825562,394.265839 905.069397,408.023804 903.237671,421.632080 
	C902.188477,429.426880 902.908081,437.215149 901.861023,444.931610 
	C901.055115,450.871124 905.872559,454.765991 912.057983,452.449036 
	C909.505859,449.548462 910.553711,446.484894 911.087341,443.144775 
	C912.497742,434.317322 914.022095,425.393402 914.106018,416.494690 
	C914.243469,401.912445 913.481201,387.332611 914.737732,372.750916 
	C915.889771,359.382202 917.028503,345.996490 917.545105,332.594055 
	C917.934937,322.481659 919.383362,312.516541 920.438904,302.495361 
	C920.803650,299.032013 920.218323,296.285248 916.275574,296.098541 
	C911.089294,295.852936 908.423523,298.406403 908.074280,303.058868 
	C907.155579,315.296478 908.643494,327.582458 907.330444,340.735046 
M816.555298,496.284149 
	C804.555420,496.640076 792.588806,497.905853 780.496033,497.157104 
	C783.856934,500.661530 787.767761,502.802765 791.743225,504.754883 
	C801.415405,509.504333 809.486694,517.495544 820.728516,519.096252 
	C821.483582,519.203796 822.309021,519.769104 822.837219,520.358582 
	C825.606018,523.448730 827.848694,522.041748 830.536743,519.995605 
	C837.953857,514.349548 844.648865,507.800598 852.500732,502.688629 
	C854.847778,501.160553 857.432129,499.575409 859.241028,496.265778 
	C844.796753,496.265778 831.168945,496.265778 816.555298,496.284149 
z"/>
<path fill="#000000" opacity="1.000000" stroke="none" 
	d="
M611.221008,426.296844 
	C603.251831,436.062195 592.760315,441.261993 581.524109,445.212982 
	C579.304260,445.993530 578.059509,447.019470 578.319946,449.455994 
	C579.419739,459.741821 571.472595,463.591461 564.531189,467.232056 
	C560.517944,469.336884 558.569153,471.519836 558.277161,475.686401 
	C556.206909,505.220703 528.662415,529.982544 498.246246,530.272888 
	C489.984802,530.351746 482.431580,527.856262 476.245300,522.263489 
	C469.251160,515.940369 461.038239,510.153992 459.288727,500.137238 
	C457.176147,488.041779 455.387543,475.655731 457.041992,463.459869 
	C458.592438,452.030914 464.833771,442.953156 475.103577,436.705414 
	C488.367493,428.636169 502.563263,426.340057 517.701660,428.212250 
	C520.474548,428.555176 523.255127,428.836273 526.735229,429.224304 
	C525.540100,424.657166 524.749695,420.471191 523.347717,416.501190 
	C519.399170,405.319550 522.567871,395.079163 526.393738,384.564819 
	C530.137939,374.274811 537.590149,367.443665 546.496826,362.688477 
	C553.803894,358.787231 561.701416,355.323425 570.338196,354.501099 
	C580.903809,353.495117 591.429016,351.496765 602.078369,353.200867 
	C612.953003,354.941071 622.409485,358.869781 625.825256,370.692078 
	C627.840637,377.667145 627.471191,384.838989 626.829102,391.981659 
	C626.741882,392.951843 626.218384,393.913330 626.966248,395.091980 
	C628.906494,396.244232 630.896729,394.575592 632.991821,394.663177 
	C638.161316,394.879150 642.419861,396.106079 645.068054,401.010925 
	C647.952148,406.352661 647.078979,411.066711 643.673157,415.896790 
	C637.698669,424.369720 628.064575,430.300812 617.140686,423.552368 
	C614.088318,421.666687 613.214294,424.890320 611.221008,426.296844 
M544.456055,490.865051 
	C546.523926,485.903839 547.765015,480.778992 547.838318,475.365112 
	C547.873962,472.736053 547.480347,469.948669 549.148193,467.609741 
	C550.937866,465.099976 550.297058,462.529449 549.497986,459.965454 
	C548.609924,457.116486 547.526917,454.327942 546.653992,451.474792 
	C545.891357,448.982239 544.465454,447.216278 542.316589,445.638611 
	C537.354126,441.995117 531.702209,440.981262 525.911804,439.376099 
	C516.224854,436.690796 506.668854,435.032440 497.053558,437.414093 
	C485.230896,440.342560 474.405396,445.210632 469.542816,458.002899 
	C467.814850,462.548920 467.691833,467.245911 467.697937,471.758209 
	C467.714783,484.200928 465.949707,496.974182 475.224426,507.829773 
	C482.544220,516.397217 494.334991,524.126587 508.521362,520.233704 
	C524.670715,515.802124 537.085938,507.114532 544.456055,490.865051 
M606.972290,416.475311 
	C614.617249,404.809631 619.628235,392.346252 617.712830,378.075226 
	C616.999512,372.760193 615.212524,367.436920 610.177795,364.708954 
	C606.120300,362.510529 601.411560,361.742310 596.731567,361.264130 
	C581.449280,359.702759 566.793579,362.445129 553.075073,368.887665 
	C545.746460,372.329376 539.312012,377.472870 536.463989,385.958099 
	C533.053284,396.119812 531.955444,405.962158 534.840759,416.686768 
	C537.277771,425.745056 542.135132,430.396210 550.992126,431.841553 
	C553.574280,432.262909 555.979492,433.477173 558.438171,434.468262 
	C564.727783,437.003632 572.024780,440.045868 578.128967,437.731232 
	C589.185242,433.538849 600.481445,428.582336 606.972290,416.475311 
M625.412720,417.865662 
	C629.649780,418.191803 637.459167,410.849609 637.715576,406.298676 
	C637.910767,402.836884 633.455261,400.136566 625.960083,399.225098 
	C624.884521,402.304840 624.109863,405.564880 622.640259,408.473755 
	C620.695984,412.321899 621.547546,415.118713 625.412720,417.865662 
M556.179260,442.794189 
	C554.855408,442.591461 553.699219,441.172668 552.112244,442.084351 
	C553.547241,447.425751 557.430237,451.420197 558.808350,456.641846 
	C559.528687,459.371338 561.949524,459.420349 564.071228,458.135620 
	C565.610779,457.203339 567.013916,455.937347 568.225403,454.592743 
	C571.478882,450.981689 570.503479,447.427673 565.894836,445.874390 
	C562.906311,444.867188 559.877686,443.979401 556.179260,442.794189 
z"/>
<path fill="#000000" opacity="1.000000" stroke="none" 
	d="
M329.969788,492.737305 
	C331.099274,492.579956 331.923187,492.323059 332.883423,493.384888 
	C327.830933,496.980133 321.703094,497.973145 316.372620,500.663910 
	C315.469788,501.119659 314.337616,500.640076 313.948181,499.537598 
	C313.354980,497.858246 314.549927,496.921265 315.811432,496.574860 
	C320.419067,495.309662 324.818573,493.270203 329.969788,492.737305 
z"/>
<path fill="#000000" opacity="1.000000" stroke="none" 
	d="
M662.211060,563.910706 
	C665.083374,562.473938 666.778442,560.450623 668.575867,558.156677 
	C672.918884,552.613892 678.682068,548.943237 685.345520,546.126587 
	C690.388123,543.995056 694.663574,539.928589 698.692505,535.922363 
	C703.729248,530.914062 708.950928,526.087219 714.194824,521.293762 
	C716.414429,519.264771 719.090210,517.894226 722.015137,517.284302 
	C722.930664,511.788269 732.357239,508.196228 736.332947,512.117615 
	C739.137573,514.883911 742.319702,516.402527 745.811951,517.221741 
	C749.841248,518.166992 752.363770,520.993286 755.208069,523.450195 
	C756.868530,524.884521 758.043823,526.614990 756.680176,529.135010 
	C755.776245,530.805359 756.216003,532.716309 757.129578,534.414246 
	C758.114807,536.245178 758.256409,538.213806 758.138794,540.240295 
	C758.028198,542.145996 757.058899,543.351990 755.247803,543.844543 
	C753.288208,544.377563 752.119690,543.450439 751.307617,541.712036 
	C750.466187,539.911133 749.476257,538.179626 748.406982,536.142700 
	C737.297913,544.233704 727.207275,553.268616 717.222412,562.421875 
	C712.348816,566.889526 706.943054,570.710449 701.849976,574.893005 
	C690.855591,583.921753 679.475342,592.532166 667.177368,599.840576 
	C663.227234,602.188049 658.166138,604.077942 658.898804,610.397583 
	C659.073669,611.906433 657.825256,612.751465 656.329590,612.927246 
	C654.716431,613.116760 653.879761,612.188354 653.413574,610.782104 
	C652.841370,609.056030 652.067322,607.421082 652.049255,605.507202 
	C652.012085,601.563599 649.270020,599.633545 645.955994,599.043701 
	C642.555176,598.438538 641.134705,594.357544 637.269470,594.729736 
	C636.959473,596.290955 636.675964,597.895752 636.316528,599.483337 
	C635.886719,601.381409 634.650818,602.311279 632.708374,602.195312 
	C630.604309,602.069641 629.707397,600.690918 629.903687,598.817688 
	C630.680725,591.402588 629.357544,584.012756 637.333252,578.197205 
	C644.257141,573.148560 651.706665,569.853638 659.134888,566.142334 
	C660.151367,565.634399 660.982056,564.754517 662.211060,563.910706 
M728.246643,520.790833 
	C720.379272,527.454895 712.024780,533.465576 703.782532,539.643799 
	C688.198303,551.325439 671.977356,562.106323 656.510437,573.927063 
	C650.738464,578.338379 643.922791,581.308533 638.413635,586.834412 
	C642.559204,591.009277 647.717468,592.852966 652.551331,595.274231 
	C656.162598,597.083069 658.963623,596.765808 662.555176,594.484192 
	C667.194763,591.536743 671.552795,588.248901 676.070862,585.161621 
	C684.273254,579.556702 691.591858,572.826721 699.383301,566.716736 
	C709.249878,558.979370 718.348938,550.226929 728.348145,542.591614 
	C734.049622,538.237976 739.241516,533.346130 744.257996,528.236145 
	C745.529846,526.940613 745.850098,525.755615 744.957092,524.265808 
	C742.362732,519.937805 736.804565,521.008240 733.333801,517.979004 
	C732.226379,517.012451 730.149414,519.160767 728.246643,520.790833 
z"/>
<path fill="#000000" opacity="1.000000" stroke="none" 
	d="
M122.533165,413.876587 
	C120.913887,412.786530 119.141609,412.372894 118.651802,410.026642 
	C122.664070,410.001404 125.359497,413.081512 129.756470,413.487885 
	C126.940689,415.995850 124.898117,415.008636 122.533165,413.876587 
z"/>
</svg>